<svg xmlns="http://www.w3.org/2000/svg" width="32" height="32" viewBox="0 0 32 32">
  <g id="вайбер" transform="translate(-1281 -405)">
    <circle id="Эллипс_129" data-name="Эллипс 129" cx="16" cy="16" r="16" transform="translate(1281 405)" fill="#7252d8"/>
    <g id="viber_4_" data-name="viber (4)" transform="translate(1289.422 413.421)">
      <path id="Контур_331" data-name="Контур 331" d="M17.252,10.123C17.774,5.73,17,2.957,15.608,1.7h0C13.359-.441,5.762-.758,3.071,1.8,1.862,3.048,1.437,4.882,1.39,7.154s-.1,6.528,3.864,7.683h0l0,1.763s-.027.714.429.858c.522.169.758-.163,2.381-2.1a14.854,14.854,0,0,0,5.036-.383c.548-.184,3.65-.594,4.151-4.85Zm-8.92,3.992s-1.718,2.142-2.252,2.7c-.175.181-.367.164-.364-.195,0-.235.013-2.927.013-2.927C2.367,12.728,2.565,9.1,2.6,7.208s.383-3.45,1.407-4.5C6.369.5,13.029.994,14.726,2.588,16.8,4.427,16.062,9.623,16.067,9.8c-.426,3.553-2.94,3.778-3.4,3.932a13.7,13.7,0,0,1-4.333.383Z" transform="translate(-1.38 0.013)" fill="#fff"/>
      <path id="Контур_332" data-name="Контур 332" d="M12.144,4.3a.221.221,0,0,0,0,.441c2.177.017,3.97,1.534,3.99,4.318a.213.213,0,1,0,.426,0h0c-.023-3-1.981-4.739-4.416-4.755Z" transform="translate(-4.241 -1.155)" fill="#fff"/>
      <path id="Контур_333" data-name="Контур 333" d="M15.147,9.021a.213.213,0,1,0,.426.01,2.952,2.952,0,0,0-2.9-3.16.221.221,0,0,0-.03.441,2.517,2.517,0,0,1,2.5,2.709Z" transform="translate(-4.38 -1.582)" fill="#fff"/>
      <path id="Контур_334" data-name="Контур 334" d="M13,10.664a.673.673,0,0,0-.878.126l-.317.41a.567.567,0,0,1-.462.181A4.231,4.231,0,0,1,8.56,8.5a.613.613,0,0,1,.174-.478l.4-.328a.73.73,0,0,0,.122-.909A9.473,9.473,0,0,0,8.167,5.217a.587.587,0,0,0-.789-.133H7.371c-.631.369-1.321,1.059-1.1,1.77A11.925,11.925,0,0,0,9.548,11.8a12.6,12.6,0,0,0,3.376,1.93l.007.01c.687.229,1.354-.488,1.711-1.138v-.005a.625.625,0,0,0-.125-.806A8.593,8.593,0,0,0,13,10.664Z" transform="translate(-2.694 -1.343)" fill="#fff"/>
      <path id="Контур_335" data-name="Контур 335" d="M13.095,7.94c.7.041,1.04.407,1.077,1.158a.214.214,0,1,0,.426-.02A1.463,1.463,0,0,0,13.118,7.5.221.221,0,0,0,13.095,7.94Z" transform="translate(-4.501 -2.023)" fill="#fff"/>
    </g>
  </g>
</svg>
