<svg xmlns="http://www.w3.org/2000/svg" width="61" height="70.623" viewBox="0 0 61 70.623">
  <g id="play" transform="translate(-34.883 0)">
    <g id="Сгруппировать_539" data-name="Сгруппировать 539" transform="translate(34.883 0)">
      <path id="Контур_377" data-name="Контур 377" d="M91.3,27.162,49.584,1.45a9.645,9.645,0,0,0-14.7,8.213v51.19a9.746,9.746,0,0,0,9.624,9.77h.043a9.679,9.679,0,0,0,5-1.5,2.754,2.754,0,1,0-2.869-4.7,4.226,4.226,0,0,1-2.145.7,4.279,4.279,0,0,1-4.146-4.262V9.663a4.137,4.137,0,0,1,6.3-3.524L88.407,31.851a4.137,4.137,0,0,1-.018,7.057L58.231,57.374a2.754,2.754,0,0,0,2.876,4.7L91.261,43.608A9.645,9.645,0,0,0,91.3,27.162Z" transform="translate(-34.883 0)" fill="#fff"/>
    </g>
  </g>
</svg>
