<svg xmlns="http://www.w3.org/2000/svg" width="16.044" height="16.092" viewBox="0 0 16.044 16.092">
  <g id="vodafone-icon" transform="translate(-0.279 -1.102)">
    <path id="Контур_388" data-name="Контур 388" d="M5.344,1.664a8.017,8.017,0,0,1,6.331.185,5.324,5.324,0,0,0-1.683.073A8.147,8.147,0,0,0,5.941,3.965,6.979,6.979,0,0,0,3.907,7.911a5.491,5.491,0,0,0,.465,3.135,4.671,4.671,0,0,0,2.391,2.27,4.29,4.29,0,0,0,5.918-3.637,4.081,4.081,0,0,0-.888-2.989A5.029,5.029,0,0,0,9.134,5.211a3.259,3.259,0,0,1,1.138-2.579,3.586,3.586,0,0,1,1.43-.748l.04-.014A8.126,8.126,0,0,1,15.3,5.21a8.052,8.052,0,0,1-5.192,11.778,8.022,8.022,0,0,1-8.8-3.875A8.108,8.108,0,0,1,2,4.155a8.058,8.058,0,0,1,3.34-2.491Zm0,0" transform="translate(0 0)" fill="#e60000"/>
    <path id="Контур_389" data-name="Контур 389" d="M90.52,17.869A5.324,5.324,0,0,1,92.2,17.8l.08.014-.054.02a3.586,3.586,0,0,0-1.43.748,3.259,3.259,0,0,0-1.138,2.579,5.028,5.028,0,0,1,2.659,1.478,4.081,4.081,0,0,1,.888,2.989,4.29,4.29,0,0,1-5.918,3.637,4.671,4.671,0,0,1-2.391-2.27,5.49,5.49,0,0,1-.465-3.135,6.978,6.978,0,0,1,2.034-3.946A8.146,8.146,0,0,1,90.52,17.869Zm0,0" transform="translate(-80.528 -15.947)" fill="#fff"/>
  </g>
</svg>
