<svg id="youtube_1_" data-name="youtube (1)" xmlns="http://www.w3.org/2000/svg" width="28" height="28" viewBox="0 0 28 28">
  <path id="Контур_375" data-name="Контур 375" d="M224.113,213.285l4.554-2.623-4.554-2.623Zm0,0" transform="translate(-211.857 -196.662)" fill="#fff"/>
  <path id="Контур_376" data-name="Контур 376" d="M14,0A14,14,0,1,0,28,14,14,14,0,0,0,14,0Zm8.748,14.014a23.107,23.107,0,0,1-.36,4.208,2.192,2.192,0,0,1-1.542,1.542,53.211,53.211,0,0,1-6.846.36,51.307,51.307,0,0,1-6.846-.375,2.192,2.192,0,0,1-1.542-1.542A23.005,23.005,0,0,1,5.252,14a23.091,23.091,0,0,1,.36-4.208A2.237,2.237,0,0,1,7.154,8.235,53.211,53.211,0,0,1,14,7.875a51.2,51.2,0,0,1,6.846.375,2.192,2.192,0,0,1,1.542,1.542A21.928,21.928,0,0,1,22.748,14.014Zm0,0" fill="#fff"/>
</svg>
