<svg xmlns="http://www.w3.org/2000/svg" width="28" height="28" viewBox="0 0 28 28">
  <g id="mail" transform="translate(-1009 -211)">
    <circle id="Эллипс_252" data-name="Эллипс 252" cx="14" cy="14" r="14" transform="translate(1009 211)" fill="#fff"/>
    <path id="Контур_526" data-name="Контур 526" d="M168.639,78.28V75.77a7.533,7.533,0,1,0-7.533,7.533.628.628,0,0,0,0-1.255,6.277,6.277,0,1,1,6.277-6.277v2.511a1.255,1.255,0,1,1-2.511,0V75.77a.628.628,0,1,0-1.255,0,2.511,2.511,0,1,1-2.511-2.511.628.628,0,0,0,0-1.255,3.766,3.766,0,1,0,2.538,6.541,2.5,2.5,0,0,0,4.995-.264Z" transform="translate(862.025 149.695)"/>
  </g>
</svg>
