<svg id="comment-user" xmlns="http://www.w3.org/2000/svg" xmlns:xlink="http://www.w3.org/1999/xlink" width="47" height="47" viewBox="0 0 47 47">
  <defs>
    <clipPath id="clip-path">
      <circle id="Эллипс_49" data-name="Эллипс 49" cx="23.5" cy="23.5" r="23.5" fill="#ebf1f6"/>
    </clipPath>
  </defs>
  <path id="Контур_7558" data-name="Контур 7558" d="M23.5,0A23.5,23.5,0,1,1,0,23.5,23.5,23.5,0,0,1,23.5,0Z" fill="#fff"/>
  <g id="Группа_масок_16" data-name="Группа масок 16" clip-path="url(#clip-path)">
    <g id="Сгруппировать_2465" data-name="Сгруппировать 2465" transform="translate(7.587 5.69)">
      <path id="Контур_7544" data-name="Контур 7544" d="M140.786,25.086a2.568,2.568,0,0,1-2.568,2.568v-5a.79.79,0,0,0-.8-.789,12.747,12.747,0,0,1-7.257-2.125.788.788,0,0,0-1.229.6,3.475,3.475,0,0,0,.155,1.186.79.79,0,0,1-.893,1.013,12.005,12.005,0,0,1-5.726-2.726,2.294,2.294,0,0,0-3.8,1.738v6.1a2.436,2.436,0,0,1-2.469-2.424V15.6a2.667,2.667,0,0,1,2.667-2.667A7.857,7.857,0,0,1,126.154,8h6.731a7.9,7.9,0,0,1,7.9,7.9v9.185Z" transform="translate(-112.425 -7.21)" fill="#777"/>
      <path id="Контур_7545" data-name="Контур 7545" d="M160.75,130.619a9.778,9.778,0,0,1-19.555,0v-6.455a2.3,2.3,0,0,1,3.8-1.692,12.005,12.005,0,0,0,5.726,2.726.79.79,0,0,0,.893-1.013,3.478,3.478,0,0,1-.155-1.186.788.788,0,0,1,1.229-.6,12.747,12.747,0,0,0,7.257,2.125.79.79,0,0,1,.8.789Z" transform="translate(-134.957 -109.867)" fill="#fff"/>
      <path id="Контур_7547" data-name="Контур 7547" d="M141.2,143.92c0,.042,0,.086,0,.129C141.195,144,141.194,143.969,141.2,143.92Z" transform="translate(-134.957 -129.706)" fill="#ffd6a6"/>
      <path id="Контур_7548" data-name="Контур 7548" d="M141.2,143.92c0,.042,0,.086,0,.129C141.195,144,141.194,143.969,141.2,143.92Z" transform="translate(-134.957 -129.706)" fill="#ffd6a6"/>
      <path id="Контур_7557" data-name="Контур 7557" d="M101.891,33.8a3.283,3.283,0,0,1-2.823-1.587.79.79,0,1,0-1.35.821,4.877,4.877,0,0,0,1.651,1.648L98.548,38.4l-1.973-2.275a.791.791,0,1,0-1.151-1.085l-1.39,1.6-3.5-3.891a4.838,4.838,0,0,0,.532-1.852,10.579,10.579,0,0,0,13.552-10.055c0-.018,0-3.016,0-3.033a.79.79,0,1,0-1.58,0v2.951a8.988,8.988,0,0,1-17.975,0V14.344a1.5,1.5,0,0,1,2.5-1.141A12.828,12.828,0,0,0,95.3,16.3a.791.791,0,0,0,.652-1.288,2.742,2.742,0,0,1-.62-1.823,13.589,13.589,0,0,0,8.56,2.221.79.79,0,0,0-.119-1.576,11.987,11.987,0,0,1-8.435-2.595.791.791,0,0,0-1.216.3,4.275,4.275,0,0,0-.178,3.021,11.212,11.212,0,0,1-5.35-2.546,3.085,3.085,0,0,0-5.108,2.286c0,.027,0,3.231,0,5.174a1.631,1.631,0,0,1-.889-1.446V8.395a1.879,1.879,0,0,1,1.877-1.877.79.79,0,0,0,.734-.5,7.032,7.032,0,0,1,6.56-4.442H98.5a7.119,7.119,0,0,1,7.111,7.111v9.329a.79.79,0,1,0,1.58,0V8.691A8.7,8.7,0,0,0,98.5,0H91.767a8.6,8.6,0,0,0-7.831,4.98,3.462,3.462,0,0,0-2.92,3.415v9.626a3.224,3.224,0,0,0,2.477,3.123,10.585,10.585,0,0,0,6.016,9.149,3.331,3.331,0,0,1-.971,2.534,3.285,3.285,0,0,1-2.341.962,8.15,8.15,0,0,0-8.155,8.15l0,4.667a.79.79,0,1,0,1.58,0l0-4.667a6.571,6.571,0,0,1,6.583-6.57,4.922,4.922,0,0,0,1.029-.109l1.1,5a.791.791,0,0,0,1.368.349l2.845-3.272.708.788,0,4.734a.79.79,0,0,0,1.58,0l0-4.742.694-.8,2.856,3.293a.791.791,0,0,0,1.368-.347l1.106-5a4.961,4.961,0,0,0,1.032.111,6.571,6.571,0,0,1,6.571,6.579l0,4.667a.79.79,0,0,0,1.58,0l0-4.667A8.151,8.151,0,0,0,101.891,33.8ZM89.539,38.391l-.817-3.718a4.889,4.889,0,0,0,.846-.645l1.913,2.129Z" transform="translate(-78.038 0)" fill="#474747"/>
    </g>
  </g>
</svg>
