<svg xmlns="http://www.w3.org/2000/svg" width="44" height="44" viewBox="0 0 44 44">
  <g id="inst" transform="translate(0.069)">
    <rect id="Прямоугольник_413" data-name="Прямоугольник 413" width="44" height="44" rx="22" transform="translate(-0.069)"/>
    <g id="linkedin" transform="translate(12.138 12.138)">
      <path id="Контур_382" data-name="Контур 382" d="M2.31-.668a2.128,2.128,0,1,0-.054,4.245h.027A2.129,2.129,0,1,0,2.31-.668Zm0,0" transform="translate(0 0.668)" fill="#d0d0d0"/>
      <path id="Контур_383" data-name="Контур 383" d="M8.109,198.313h4.083V210.6H8.109Zm0,0" transform="translate(-7.868 -192.39)" fill="#d0d0d0"/>
      <path id="Контур_384" data-name="Контур 384" d="M228.978,188.625a5.116,5.116,0,0,0-3.68,2.07v-1.782h-4.083V201.2H225.3v-6.86a2.8,2.8,0,0,1,.135-1,2.235,2.235,0,0,1,2.1-1.493c1.478,0,2.068,1.127,2.068,2.778V201.2h4.083v-7.044C233.679,190.381,231.664,188.625,228.978,188.625Zm0,0" transform="translate(-214.631 -182.991)" fill="#d0d0d0"/>
    </g>
  </g>
</svg>
