<svg id="instagram" xmlns="http://www.w3.org/2000/svg" width="28" height="28" viewBox="0 0 28 28">
  <path id="Контур_371" data-name="Контур 371" d="M34.52,23.88H26.175A2.418,2.418,0,0,0,23.759,26.3v8.345a2.419,2.419,0,0,0,2.416,2.416H34.52a2.419,2.419,0,0,0,2.416-2.416V26.3A2.419,2.419,0,0,0,34.52,23.88ZM30.347,34.806a4.338,4.338,0,1,1,4.338-4.338A4.343,4.343,0,0,1,30.347,34.806Zm4.477-7.779A1.026,1.026,0,1,1,35.851,26,1.028,1.028,0,0,1,34.825,27.028Z" transform="translate(-16.347 -16.431)" fill="#fff"/>
  <path id="Контур_372" data-name="Контур 372" d="M39.354,36.971a2.5,2.5,0,1,0,2.5,2.5A2.508,2.508,0,0,0,39.354,36.971Z" transform="translate(-25.354 -25.438)" fill="#fff"/>
  <path id="Контур_373" data-name="Контур 373" d="M14,0A14,14,0,1,0,28,14,14,14,0,0,0,14,0Zm8.421,18.21a4.253,4.253,0,0,1-4.249,4.249H9.827A4.253,4.253,0,0,1,5.579,18.21V9.865A4.254,4.254,0,0,1,9.827,5.616h8.345a4.253,4.253,0,0,1,4.249,4.249Z" fill="#fff"/>
</svg>
