<svg xmlns="http://www.w3.org/2000/svg" width="22.246" height="21.13" viewBox="0 0 22.246 21.13">
  <g id="sister-and-brother" transform="translate(0 -11.466)">
    <circle id="Эллипс_254" data-name="Эллипс 254" cx="2.307" cy="2.307" r="2.307" transform="translate(13.923 11.971)" fill="#fff"/>
    <path id="Контур_7574" data-name="Контур 7574" d="M22.107,121.445l-3.55-6.093a1.014,1.014,0,0,0-.775-.5H14.761a1.014,1.014,0,0,0-.775.5l-2.674,4.591-2.969-5.1a1.014,1.014,0,0,0-.88-.5H4.568a1.014,1.014,0,0,0-.88.5l-3.55,6.093a1.016,1.016,0,1,0,1.755,1.022l1.566-2.687v1.151l-.7,5.049a.708.708,0,0,0,.7.8h0v3.091a1.089,1.089,0,0,0,1.033,1.1A1.072,1.072,0,0,0,5.6,129.4v-3.116h.847v3.091a1.088,1.088,0,0,0,1.033,1.1A1.072,1.072,0,0,0,8.592,129.4v-3.116h0a.708.708,0,0,0,.7-.8l-.7-5.049v-1.114l1.544,2.651a3.257,3.257,0,0,0,.665.872,1.015,1.015,0,0,0,1.389-.366l1.522-2.612-.015,8.989a1.072,1.072,0,0,0,1.072,1.072h.015a1.072,1.072,0,0,0,1.072-1.072l-.015-5.424a.433.433,0,0,1,.4-.437.423.423,0,0,1,.452.422v5.413a1.089,1.089,0,0,0,1.033,1.1,1.072,1.072,0,0,0,1.111-1.071v-8.989l1.522,2.612a1.016,1.016,0,0,0,1.755-1.022Z" transform="translate(0 -97.871)" fill="#fff"/>
    <path id="Контур_7575" data-name="Контур 7575" d="M37.046,16.033l.571-.051a.554.554,0,0,0,.5-.659,1.819,1.819,0,0,1,.278-1.6c0,.018,0,.036,0,.053a2.306,2.306,0,1,0,4.613,0c0-.018,0-.036,0-.053a1.819,1.819,0,0,1,.278,1.6.554.554,0,0,0,.5.659l.571.051a.555.555,0,0,0,.6-.494,3.377,3.377,0,0,0-.349-2.265,1.978,1.978,0,0,0-1.854-.561,2.306,2.306,0,0,0-4.1,0,1.978,1.978,0,0,0-1.854.561,3.378,3.378,0,0,0-.349,2.265A.555.555,0,0,0,37.046,16.033Z" transform="translate(-34.636)" fill="#fff"/>
  </g>
</svg>
