<svg xmlns="http://www.w3.org/2000/svg" width="18.096" height="22.13" viewBox="0 0 18.096 22.13">
  <g id="adult-man-avatar-with-short-curly-hair-and-mustache" transform="translate(-48.73 0)">
    <g id="Сгруппировать_2523" data-name="Сгруппировать 2523" transform="translate(48.73 0)">
      <g id="Сгруппировать_2522" data-name="Сгруппировать 2522" transform="translate(2.627 0)">
        <path id="Контур_7576" data-name="Контур 7576" d="M112.258,8.1A2.245,2.245,0,0,0,113.6,9.724c.72,2.368,2.579,4.831,5.088,4.831s4.359-2.455,5.084-4.831A2.278,2.278,0,0,0,125.1,8.1a1.948,1.948,0,0,0-1.014-2.459A.694.694,0,0,1,124.1,5.5c.046-.24.315-.468.315-.724s-.265-.48-.315-.724.112-.555.017-.787-.422-.344-.555-.555-.087-.555-.257-.745-.513-.186-.7-.352-.244-.505-.464-.642-.546-.041-.774-.149S121,.4,120.754.322s-.542.087-.787.037-.451-.335-.7-.356-.509.2-.766.2-.522-.228-.766-.2-.464.306-.7.356-.555-.116-.787-.037-.385.4-.609.505-.567.017-.774.149-.273.48-.464.642-.542.166-.7.352-.124.538-.257.745-.464.323-.555.555.066.542.017.787-.315.468-.315.724.265.48.315.724a1.179,1.179,0,0,1-.012.339A2.11,2.11,0,0,0,112.258,8.1Zm12.022-.2a1.34,1.34,0,0,1-.911,1.068L123.093,9l-.074.269c-.6,2.211-2.285,4.45-4.339,4.45s-3.734-2.24-4.339-4.455l-.075-.269-.277-.037a1.333,1.333,0,0,1-.911-1.068,1.542,1.542,0,0,1,.161-1.234.547.547,0,0,1,.3-.224.571.571,0,0,1,.091-.008.4.4,0,0,1,.07,0l.393.037.062-.393c.4-2.683,2.219-4.484,4.521-4.484S122.8,3.394,123.2,6.076l.062.393.393-.037a.676.676,0,0,1,.161,0,.5.5,0,0,1,.128.054A1.332,1.332,0,0,1,124.281,7.894Z" transform="translate(-112.173 0)" fill="#fff"/>
        <path id="Контур_7577" data-name="Контур 7577" d="M210.178,232.008a2.652,2.652,0,0,0-.6,1.817A2.118,2.118,0,0,0,212,231.412,2.652,2.652,0,0,0,210.178,232.008Z" transform="translate(-205.547 -221.83)" fill="#fff"/>
        <path id="Контур_7578" data-name="Контур 7578" d="M268.18,231.411a2.118,2.118,0,0,0,2.414,2.414,2.118,2.118,0,0,0-2.414-2.414Z" transform="translate(-261.72 -221.829)" fill="#fff"/>
      </g>
      <path id="Контур_7579" data-name="Контур 7579" d="M62.619,305.761a5.117,5.117,0,0,1-1.938,2.062c-1.664.853-2.9,1.54-2.9,1.54l0,0v-.017l-.017.008-.017-.008v.017l0,0s-1.238-.691-2.9-1.54a5.061,5.061,0,0,1-1.937-2.062c-2.463,1-4.177,3.3-4.177,5.307v4.165h18.1v-4.165C66.8,309.065,65.083,306.763,62.619,305.761Z" transform="translate(-48.73 -293.103)" fill="#fff"/>
    </g>
  </g>
</svg>
