<svg xmlns="http://www.w3.org/2000/svg" width="13.97" height="18.803" viewBox="0 0 13.97 18.803">
  <g id="pin" transform="translate(-47.93 0.15)">
    <g id="Сгруппировать_516" data-name="Сгруппировать 516" transform="translate(48.08)">
      <g id="Сгруппировать_515" data-name="Сгруппировать 515" transform="translate(0)">
        <path id="Контур_353" data-name="Контур 353" d="M54.915,0A6.843,6.843,0,0,0,48.08,6.835a7.886,7.886,0,0,0,.58,2.631,11.022,11.022,0,0,0,.79,1.478l4.686,7.1a.891.891,0,0,0,1.558,0l4.687-7.1a10.977,10.977,0,0,0,.79-1.478,7.884,7.884,0,0,0,.579-2.631A6.843,6.843,0,0,0,54.915,0Zm5.514,9.154a10.1,10.1,0,0,1-.72,1.347l-4.687,7.1c-.092.14-.122.14-.214,0l-4.687-7.1a10.1,10.1,0,0,1-.72-1.347,7.158,7.158,0,0,1-.517-2.319,6.031,6.031,0,1,1,12.062,0A7.164,7.164,0,0,1,60.429,9.154Z" transform="translate(-48.08)" fill="#fff" stroke="#fff" stroke-width="0.3"/>
        <path id="Контур_354" data-name="Контур 354" d="M115.7,64.008a3.619,3.619,0,1,0,3.619,3.619A3.623,3.623,0,0,0,115.7,64.008Zm0,6.433a2.814,2.814,0,1,1,2.814-2.814A2.818,2.818,0,0,1,115.7,70.441Z" transform="translate(-108.864 -60.791)" fill="#fff" stroke="#fff" stroke-width="0.3"/>
      </g>
    </g>
  </g>
</svg>
