<svg xmlns="http://www.w3.org/2000/svg" width="29.204" height="27.921" viewBox="0 0 29.204 27.921">
  <g id="star" transform="translate(0.764 0.75)">
    <g id="Сгруппировать_537" data-name="Сгруппировать 537" transform="translate(0 0)">
      <path id="Контур_380" data-name="Контур 380" d="M27.636,21.821a.811.811,0,0,0-.654-.552L18.4,20.022l-3.837-7.774a.811.811,0,0,0-1.454,0L9.274,20.022.694,21.269a.811.811,0,0,0-.449,1.383L6.453,28.7,4.988,37.249a.811.811,0,0,0,1.176.855l7.674-4.034L21.512,38.1a.811.811,0,0,0,1.177-.855L21.222,28.7l6.209-6.052A.81.81,0,0,0,27.636,21.821Z" transform="translate(0 -11.796)" fill="none" stroke="rgba(191,191,191,0.25)" stroke-width="1.5"/>
    </g>
  </g>
</svg>
