<svg id="twitter" xmlns="http://www.w3.org/2000/svg" width="44" height="44" viewBox="0 0 44 44">
  <rect id="Прямоугольник_412" data-name="Прямоугольник 412" width="44" height="44" rx="22"/>
  <g id="twitter_2_" data-name="twitter (2)" transform="translate(12.369 14.08)">
    <g id="Сгруппировать_541" data-name="Сгруппировать 541" transform="translate(0 0)">
      <path id="Контур_381" data-name="Контур 381" d="M20.018,49.925a8.556,8.556,0,0,1-2.365.648,4.081,4.081,0,0,0,1.805-2.268,8.2,8.2,0,0,1-2.6.993,4.1,4.1,0,0,0-7.1,2.806,4.226,4.226,0,0,0,.1.936,11.616,11.616,0,0,1-8.459-4.293,4.1,4.1,0,0,0,1.261,5.485A4.053,4.053,0,0,1,.8,53.728v.045a4.123,4.123,0,0,0,3.288,4.032,4.1,4.1,0,0,1-1.076.135,3.629,3.629,0,0,1-.777-.07A4.143,4.143,0,0,0,6.07,60.729a8.246,8.246,0,0,1-5.088,1.75A7.685,7.685,0,0,1,0,62.423a11.554,11.554,0,0,0,6.3,1.842A11.6,11.6,0,0,0,17.976,52.587c0-.181-.006-.357-.015-.53A8.187,8.187,0,0,0,20.018,49.925Z" transform="translate(0 -48)" fill="#d0d0d0"/>
    </g>
  </g>
</svg>
