<svg xmlns="http://www.w3.org/2000/svg" width="17.181" height="17.947" viewBox="0 0 17.181 17.947">
  <g id="user_1_" data-name="user (1)" transform="translate(0.3 0.3)">
    <g id="Сгруппировать_582" data-name="Сгруппировать 582" transform="translate(0 8.696)">
      <g id="Сгруппировать_581" data-name="Сгруппировать 581" transform="translate(0)">
        <path id="Контур_513" data-name="Контур 513" d="M19.619,257.323a8.3,8.3,0,0,0-8.291,8.291.36.36,0,1,0,.721,0,7.57,7.57,0,0,1,15.139,0,.36.36,0,1,0,.721,0A8.3,8.3,0,0,0,19.619,257.323Z" transform="translate(-11.328 -257.323)" fill="#fff" stroke="#fff" stroke-width="0.6"/>
      </g>
    </g>
    <g id="Сгруппировать_584" data-name="Сгруппировать 584" transform="translate(4.326 0)">
      <g id="Сгруппировать_583" data-name="Сгруппировать 583" transform="translate(0)">
        <path id="Контур_514" data-name="Контур 514" d="M143.293,0a3.965,3.965,0,1,0,3.965,3.965A3.97,3.97,0,0,0,143.293,0Zm0,7.209a3.244,3.244,0,1,1,3.244-3.244A3.248,3.248,0,0,1,143.293,7.209Z" transform="translate(-139.328)" fill="#fff" stroke="#fff" stroke-width="0.6"/>
      </g>
    </g>
  </g>
</svg>
