<svg xmlns="http://www.w3.org/2000/svg" width="33" height="33" viewBox="0 0 33 33">
  <g id="viber" transform="translate(-1281 -405)">
    <circle id="Эллипс_129" data-name="Эллипс 129" cx="16.5" cy="16.5" r="16.5" transform="translate(1281 405)" fill="#7252d8"/>
    <g id="viber_4_" data-name="viber (4)" transform="translate(1289.685 413.684)">
      <path id="Контур_331" data-name="Контур 331" d="M17.748,10.44c.538-4.53-.259-7.391-1.7-8.684h0C13.733-.454,5.9-.781,3.124,1.854,1.878,3.143,1.439,5.035,1.39,7.378S1.285,14.11,5.375,15.3h0l0,1.818s-.028.737.443.885c.538.174.782-.168,2.456-2.167a15.318,15.318,0,0,0,5.193-.395c.565-.189,3.764-.613,4.281-5Zm-9.2,4.117S6.778,16.766,6.227,17.34c-.18.186-.378.169-.375-.2,0-.243.014-3.019.014-3.019C2.4,13.127,2.6,9.389,2.64,7.434s.4-3.558,1.451-4.636c2.435-2.283,9.3-1.772,11.053-.128,2.139,1.9,1.378,7.255,1.382,7.437-.44,3.664-3.032,3.9-3.508,4.055a14.133,14.133,0,0,1-4.468.4Z" transform="translate(-1.38 0.013)" fill="#fff"/>
      <path id="Контур_332" data-name="Контур 332" d="M12.15,4.3a.228.228,0,0,0,0,.455c2.245.017,4.094,1.582,4.115,4.453a.22.22,0,1,0,.44,0h0c-.024-3.093-2.043-4.887-4.554-4.9Z" transform="translate(-4 -1.057)" fill="#fff"/>
      <path id="Контур_333" data-name="Контур 333" d="M15.231,9.12a.22.22,0,1,0,.44.011A3.045,3.045,0,0,0,12.68,5.872a.228.228,0,0,0-.031.455A2.6,2.6,0,0,1,15.231,9.12Z" transform="translate(-4.128 -1.448)" fill="#fff"/>
      <path id="Контур_334" data-name="Контур 334" d="M13.214,10.841a.7.7,0,0,0-.906.13l-.327.423a.585.585,0,0,1-.477.186,4.363,4.363,0,0,1-2.871-2.97.632.632,0,0,1,.18-.493l.409-.338a.753.753,0,0,0,.126-.937,9.769,9.769,0,0,0-1.12-1.618.605.605,0,0,0-.813-.138H7.407c-.65.38-1.362,1.092-1.134,1.825a12.3,12.3,0,0,0,3.379,5.1A12.993,12.993,0,0,0,13.133,14l.007.011c.708.236,1.4-.5,1.764-1.173v-.005A.644.644,0,0,0,14.774,12a8.862,8.862,0,0,0-1.561-1.159Z" transform="translate(-2.584 -1.229)" fill="#fff"/>
      <path id="Контур_335" data-name="Контур 335" d="M13.1,7.954c.722.042,1.073.419,1.11,1.194a.22.22,0,1,0,.44-.021A1.509,1.509,0,0,0,13.125,7.5.228.228,0,0,0,13.1,7.954Z" transform="translate(-4.239 -1.852)" fill="#fff"/>
    </g>
  </g>
</svg>
